<mxfile host="app.diagrams.net" modified="2023-08-29T02:36:00.031Z" agent="Mozilla/5.0 (Linux; U; Android 10; zh-CN; Infinix X682C Build/MRA58K) AppleWebKit/537.36 (KHTML, like Gecko) Version/4.0 Chrome/57.0.2987.108 HiBrowser/2.5.005 UWS/ Mobile Safari/537.36" version="21.6.9" etag="R_QZ9aIHVyJ6f3W00jB7" type="github">
  <diagram name="Halaman-1" id="XiExTh5L0QBjeVacVK4z">
    <mxGraphModel>
      <root>
        <mxCell id="0" />
        <mxCell id="1" parent="0" />
      </root>
    </mxGraphModel>
  </diagram>
</mxfile>
